<?xml version="1.0" encoding="UTF-8" standalone="no" ?>
<!DOCTYPE svg PUBLIC "-//W3C//DTD SVG 1.1//EN" "http://www.w3.org/Graphics/SVG/1.1/DTD/svg11.dtd">
<svg xmlns="http://www.w3.org/2000/svg" xmlns:xlink="http://www.w3.org/1999/xlink" version="1.1" width="100" height="100" viewBox="0 0 500 500" xml:space="preserve">
<defs>
</defs>
<g transform="matrix(0.31 0 0 0.31 249.5 249.5)" id="alFoxkbMKBP-80-QSrtiu"  >
<path style="stroke: none; stroke-width: 1; stroke-dasharray: none; stroke-linecap: butt; stroke-dashoffset: 0; stroke-linejoin: miter; stroke-miterlimit: 4; fill: rgb(14,93,136); fill-rule: nonzero; opacity: 1;" vector-effect="non-scaling-stroke"  transform=" translate(-801.4, -801.2)" d="M 160.3 0 L 1602.8 0 L 1602.8 1442.1 C 1602.8 1452.6 1601.8 1463 1599.7 1473.3999999999999 C 1597.6000000000001 1483.6999999999998 1594.6000000000001 1493.6999999999998 1590.6000000000001 1503.4999999999998 C 1586.6000000000001 1513.1999999999998 1581.6000000000001 1522.4999999999998 1575.8000000000002 1531.1999999999998 C 1570.0000000000002 1539.8999999999999 1563.3000000000002 1547.9999999999998 1555.9 1555.4999999999998 C 1548.5 1562.8999999999999 1540.4 1569.5999999999997 1531.6000000000001 1575.3999999999999 C 1522.8000000000002 1581.1999999999998 1513.6000000000001 1586.1999999999998 1503.9 1590.1999999999998 C 1494.2 1594.1999999999998 1484.2 1597.2999999999997 1473.8000000000002 1599.2999999999997 C 1463.5000000000002 1601.3999999999996 1453.1000000000001 1602.3999999999996 1442.5000000000002 1602.3999999999996 L 0 1602.3999999999996 L 0 160.2 C 0 139 4.1 118.49999999999999 12.2 98.89999999999999 C 20.299999999999997 79.29999999999998 31.9 61.89999999999999 46.900000000000006 46.89999999999999 C 61.900000000000006 31.89999999999999 79.30000000000001 20.29999999999999 98.9 12.199999999999989 C 118.6 4.1 139 0 160.3 0" stroke-linecap="round" />
</g>
<g transform="matrix(0.31 0 0 0.31 250.5 250)" id="rjEFy6rccUwQOQcsvXJsn"  >
<path style="stroke: none; stroke-width: 1; stroke-dasharray: none; stroke-linecap: butt; stroke-dashoffset: 0; stroke-linejoin: miter; stroke-miterlimit: 4; fill: rgb(255,255,255); fill-rule: nonzero; opacity: 1;" vector-effect="non-scaling-stroke"  transform=" translate(-801.35, -801.35)" d="M 672.5 1038.6 C 676.5 1040.1999999999998 679.9 1041.8 682.6 1043.3999999999999 C 685.4 1044.9999999999998 688.8000000000001 1046.6 692.7 1048.1999999999998 L 569.8 1171 C 567.4 1168.6 564.8 1166.4 562 1164.4 C 559.2 1162.4 556.6 1160.2 554.2 1157.8000000000002 L 672.5 1038.6000000000001 z M 757.2 550.5999999999999 L 921.9000000000001 385.8999999999999 L 933.8000000000001 388.2999999999999 L 945.7 390.6999999999999 L 787 550.6 L 757.2 550.6 z M 932.7 566.0999999999999 C 929.5 563.6999999999999 926.5 561.6999999999999 923.7 560.0999999999999 C 920.9000000000001 558.4999999999999 917.5 556.8999999999999 913.6 555.3 L 1035.3 433.59999999999997 C 1038.5 435.99999999999994 1041.3 438.4 1043.7 440.79999999999995 C 1046.1000000000001 443.19999999999993 1048.9 445.59999999999997 1052.1000000000001 447.99999999999994 L 932.7 566.1 z M 953 586.3999999999999 C 949.8 580.7999999999998 945 575.6999999999998 938.7 570.8999999999999 L 1056.9 452.79999999999984 C 1060.1000000000001 455.1999999999998 1062.9 457.59999999999985 1065.3000000000002 459.99999999999983 L 1072.5000000000002 467.1999999999998 L 953 586.4 z M 966.1 613.7999999999998 C 964.5 609.7999999999998 963.1 606.1999999999998 961.9 603.0999999999998 C 960.6999999999999 599.8999999999997 959.3 596.2999999999998 957.6999999999999 592.3999999999997 L 1077.1 473 C 1079.5 476.2 1081.6999999999998 479 1083.6999999999998 481.4 C 1085.6999999999998 483.79999999999995 1087.8999999999999 486.59999999999997 1090.2999999999997 489.79999999999995 L 966.0999999999997 613.8 z M 1134.4 617.3999999999999 C 1135.2 620.5999999999999 1135.6000000000001 626.1999999999998 1135.6000000000001 634.0999999999999 L 1135.6000000000001 675.8999999999999 L 968.5 675.8999999999999 L 968.5 634.0999999999999 C 968.5 629.3 968.1 625.6999999999999 967.3 623.3999999999999 L 1093.8 496.89999999999986 C 1096.2 500.09999999999985 1098.3999999999999 503.09999999999985 1100.3999999999999 505.79999999999984 C 1102.3999999999999 508.59999999999985 1104.1999999999998 511.59999999999985 1105.8 514.6999999999998 L 986.4 634.1 L 997.1 634.1 L 1109.3 521.9 C 1110.8999999999999 525.9 1112.3 529.3 1113.5 532 C 1114.7 534.8 1116.1 538.2 1117.7 542.1 L 1027 634 L 1036.5 634 L 1121.2 550.5 C 1122.8 554.5 1124 558.3 1124.8 561.8 C 1125.6 565.4 1126.8 569.1999999999999 1128.3999999999999 573.0999999999999 L 1066.3 633.9999999999999 L 1077 633.9999999999999 L 1129.5 581.4999999999999 C 1131.1 587.8999999999999 1132.7 596.5999999999999 1134.3 607.7999999999998 L 1106.8 634.0999999999998 L 1117.5 634.0999999999998 L 1134.4 617.3999999999997 z M 877.8000000000001 550.5999999999999 L 1011.5 418.19999999999993 C 1014.7 419.79999999999995 1017.7 421.5999999999999 1020.5 423.5999999999999 C 1023.3 425.5999999999999 1026.3 427.7999999999999 1029.5 430.19999999999993 L 905.2 553 C 897.2 551.4 890.5 550.6 884.9000000000001 550.6 L 877.8000000000001 550.6 z M 797.8000000000001 550.5999999999999 L 954.2 393.0999999999999 C 963.7 395.4999999999999 971.3000000000001 398.2999999999999 976.9000000000001 401.4999999999999 L 827.6 550.6 L 797.8000000000001 550.6 z M 838.4000000000001 550.5999999999999 L 984 403.8 C 988 405.40000000000003 991.6 407 994.7 408.6 L 1004.2 413.40000000000003 L 867 550.6 L 838.4 550.6 z M 634.3 968.2 C 634.3 975.4000000000001 634.6999999999999 980.5 635.5 983.7 L 510.1 1109 L 499.40000000000003 1091.1 L 622.3000000000001 968.1999999999999 L 611.6 968.1999999999999 L 495.8 1083.8999999999999 C 491.8 1076.6999999999998 488.6 1069.9999999999998 486.3 1063.6 L 581.8 968.0999999999999 L 571 968.0999999999999 L 482.7 1056.3999999999999 C 481.09999999999997 1052.3999999999999 479.9 1048.6 479.09999999999997 1045.1 C 478.29999999999995 1041.5 477.09999999999997 1037.6999999999998 475.49999999999994 1033.8 L 541.0999999999999 968.1999999999999 L 530.3999999999999 968.1999999999999 L 473.09999999999985 1025.5 L 469.49999999999983 1000.4 L 500.49999999999983 968.1999999999999 L 489.79999999999984 968.1999999999999 L 468.29999999999984 990.9 C 467.49999999999983 986.9 467.09999999999985 983.1 467.09999999999985 979.6 L 467.09999999999985 634.1 C 467.09999999999985 599.9 473.6999999999999 567.5 486.79999999999984 536.9 C 499.89999999999986 506.29999999999995 517.7999999999998 479.59999999999997 540.4999999999999 457 C 563.1999999999999 434.3 589.5999999999999 416.4 619.8999999999999 403.3 C 650.0999999999999 390.2 682.7999999999998 383.6 717.7999999999998 383.6 L 717.7999999999998 388.40000000000003 L 722.5999999999998 383.6 L 752.3999999999997 383.6 L 717.7999999999997 418.20000000000005 L 717.7999999999997 428.90000000000003 L 761.9999999999998 383.6 L 791.7999999999997 383.6 L 717.7999999999997 458.8 L 717.7999999999997 468.3 L 802.4999999999998 383.6 L 832.2999999999997 383.6 L 717.8 498.1 L 717.8 508.8 L 843.0999999999999 383.5 L 873 383.5 L 717.8 538.6 L 717.8 549.3000000000001 L 883.6999999999999 383.4000000000001 L 898.5999999999999 383.4000000000001 C 898.5999999999999 383.4000000000001 903.1999999999999 383.80000000000007 912.3 384.6000000000001 L 746.5 550.6000000000001 L 717.9 550.6000000000001 C 694.8 550.6000000000001 675.1 558.8000000000002 658.8 575.1000000000001 C 642.5 591.4000000000001 634.3 611.1000000000001 634.3 634.2000000000002 L 634.3 968.2000000000002 z M 637.9 993.3000000000001 C 639.5 997.3000000000001 641.1 1000.7 642.6999999999999 1003.4000000000001 C 644.3 1006.2 645.9 1009.6000000000001 647.4999999999999 1013.5000000000001 L 528.0999999999999 1131.6000000000001 C 525.6999999999999 1129.2 523.4999999999999 1126.6000000000001 521.4999999999999 1123.8000000000002 C 519.4999999999999 1121.0000000000002 517.2999999999998 1118.0000000000002 514.8999999999999 1114.9 L 637.8999999999999 993.3000000000001 z M 652.1999999999999 1019.5000000000001 C 653.8 1021.9000000000001 655.8 1024.5 658.1999999999999 1027.3000000000002 C 660.5999999999999 1030.1000000000004 663.4 1032.3000000000002 666.5999999999999 1033.9 L 548.3999999999999 1153.2 L 532.8999999999999 1137.7 L 652.1999999999998 1019.5 z M 968.5 953.9000000000001 L 1104.6 1088.7 C 1103 1091.1000000000001 1101.6 1093.5 1100.3999999999999 1095.9 C 1099.1999999999998 1098.3000000000002 1097.8 1100.7 1096.1999999999998 1103.1000000000001 L 968.5 974.2 L 968.5 953.9000000000001 z M 1103.3 926.4000000000001 L 1135.5 958.6000000000001 L 1135.5 980 L 1081.8 926.3 L 1103.3 926.3 z M 1062.8 926.4000000000001 L 1133.2 998.0000000000001 C 1133.2 1002.0000000000001 1132.4 1007.9000000000001 1130.8 1015.9000000000001 L 1041.3 926.4000000000001 L 1062.8 926.4000000000001 z M 1022.1999999999999 926.4000000000001 L 1127.1999999999998 1031.4 C 1125.6 1037.8000000000002 1123.9999999999998 1043.3000000000002 1122.3999999999999 1048.1000000000001 L 1000.6999999999998 926.4000000000001 L 1022.1999999999998 926.4000000000001 z M 1122.3999999999999 926.4000000000001 L 1135.4999999999998 926.4000000000001 L 1135.4999999999998 939.5000000000001 L 1122.3999999999999 926.4000000000001 z M 917.0999999999999 1044.6000000000001 C 921.8999999999999 1043.8000000000002 926.5999999999999 1041.4 931.3999999999999 1037.4 L 1050.8 1156.7 C 1047.6 1158.3 1043.6 1161.5 1038.8999999999999 1166.2 L 917.0999999999999 1044.6000000000001 z M 942.1999999999999 1029.1000000000001 C 946.9999999999999 1024.3000000000002 950.1999999999999 1020.7000000000002 951.6999999999999 1018.4000000000001 L 1071.1 1136.5 L 1060.3999999999999 1147.2 L 942.1999999999998 1029.1000000000001 z M 884.9 1051.7 C 888.9 1051.7 894.8 1050.9 902.8 1049.3 L 1028.1 1174.6 C 1021.6999999999999 1177.8 1017.3999999999999 1180.6 1014.9999999999999 1183 L 884.8999999999999 1052.9 L 884.8999999999999 1057.7 L 877.6999999999998 1064.9 L 883.6999999999998 1070.9 L 884.8999999999999 1068.5 L 884.8999999999999 1072.1 L 1003.0999999999999 1189 L 988.8 1196.2 L 885 1093.6 L 885 1098.3999999999999 L 877.8 1105.6 L 883.8 1110.3999999999999 L 885 1109.1999999999998 L 885 1112.7999999999997 L 974.5 1202.2999999999997 C 972.1 1203.8999999999996 969.7 1204.8999999999996 967.3 1205.2999999999997 C 964.9 1205.6999999999998 962.0999999999999 1206.6999999999998 958.9 1208.2999999999997 L 884.9 1134.2999999999997 L 884.9 1139.0999999999997 L 877.6999999999999 1146.2999999999997 L 883.6999999999999 1151.0999999999997 L 884.9 1149.8999999999996 L 884.9 1152.2999999999997 L 944.6 1211.9999999999998 L 926.7 1215.5999999999997 L 884.9000000000001 1173.7999999999997 L 884.9000000000001 1179.7999999999997 L 877.7 1186.9999999999998 L 883.7 1191.7999999999997 L 884.9000000000001 1190.5999999999997 L 884.9000000000001 1192.9999999999998 L 910.0000000000001 1218.0999999999997 C 906.0000000000001 1218.8999999999996 902.4000000000001 1219.2999999999997 899.3000000000001 1219.2999999999997 L 889.8000000000001 1219.2999999999997 L 885.0000000000001 1214.4999999999998 L 885.0000000000001 1219.2999999999997 L 849.2000000000002 1219.2999999999997 L 846.8000000000002 1218.0999999999997 L 845.6000000000001 1219.2999999999997 L 808.6000000000001 1219.2999999999997 L 807.4000000000001 1218.0999999999997 L 805.0000000000001 1219.2999999999997 L 768.0000000000001 1219.2999999999997 L 766.8000000000001 1218.0999999999997 L 764.4000000000001 1219.2999999999997 L 727.4000000000001 1219.2999999999997 L 726.2 1218.0999999999997 L 723.8000000000001 1219.2999999999997 L 706.5000000000001 1219.2999999999997 C 706.5000000000001 1219.2999999999997 702.7000000000002 1218.8999999999996 695.2000000000002 1218.0999999999997 L 717.9000000000002 1196.5999999999997 L 717.9000000000002 1188.1999999999996 L 721.5000000000002 1191.7999999999995 L 731.0000000000002 1182.2999999999995 L 726.2000000000003 1177.4999999999995 L 685.6000000000003 1216.8999999999996 C 681.6000000000003 1216.0999999999997 677.4000000000002 1215.4999999999995 673.1000000000003 1215.0999999999997 C 668.7000000000003 1214.6999999999996 664.5000000000002 1213.6999999999996 660.6000000000003 1212.0999999999997 L 717.9000000000002 1155.9999999999998 L 717.9000000000002 1147.5999999999997 L 721.5000000000002 1151.1999999999996 L 731.0000000000002 1141.6999999999996 L 726.2000000000003 1136.8999999999996 L 652.2000000000003 1210.8999999999996 C 648.2000000000003 1209.2999999999997 644.4000000000003 1208.0999999999997 640.9000000000003 1207.2999999999997 C 637.3000000000003 1206.4999999999998 633.5000000000003 1205.2999999999997 629.6000000000004 1203.6999999999998 L 717.9000000000003 1115.3999999999999 L 717.9000000000003 1106.9999999999998 L 721.5000000000003 1110.5999999999997 L 731.0000000000003 1101.0999999999997 L 726.2000000000004 1096.2999999999997 L 622.4000000000004 1200.0999999999997 C 616.0000000000005 1197.6999999999996 609.3000000000004 1194.4999999999998 602.1000000000005 1190.5999999999997 L 717.9000000000004 1074.8999999999996 L 717.9000000000004 1066.4999999999995 L 721.5000000000005 1071.2999999999995 L 731.0000000000005 1061.7999999999995 L 726.2000000000005 1055.7999999999995 L 594.9000000000005 1187.0999999999995 C 591.7000000000005 1185.4999999999995 588.7000000000005 1183.6999999999994 585.9000000000005 1181.6999999999994 C 583.1000000000006 1179.6999999999994 580.1000000000006 1177.4999999999993 576.9000000000005 1175.0999999999995 L 701 1051 C 705 1051.8 710.5 1052.2 717.7 1052.2 L 884.9000000000001 1051.7 z M 757.1999999999999 1064.9 L 761.9999999999999 1070.9 L 771.4999999999999 1061.4 L 766.6999999999999 1055.4 L 757.1999999999999 1064.9 z M 736.9 1085.1000000000001 L 741.6999999999999 1089.9 L 751.1999999999999 1081.5 L 746.4 1075.5 L 736.9 1085.1 z M 751.1999999999999 1202.1000000000001 L 746.4 1197.3000000000002 L 736.9 1206.8000000000002 L 741.6999999999999 1211.6000000000001 L 751.1999999999999 1202.1000000000001 z M 751.1999999999999 1161.5000000000002 L 746.4 1156.7000000000003 L 736.9 1166.2000000000003 L 741.6999999999999 1171.0000000000002 L 751.1999999999999 1161.5000000000002 z M 751.1999999999999 1120.9000000000003 L 746.4 1116.1000000000004 L 736.9 1125.6000000000004 L 741.6999999999999 1130.4000000000003 L 751.1999999999999 1120.9000000000003 z M 771.4999999999999 1181.8000000000004 L 766.6999999999999 1177.0000000000005 L 757.1999999999999 1186.5000000000005 L 761.9999999999999 1191.3000000000004 L 771.4999999999999 1181.8000000000004 z M 771.4999999999999 1141.2000000000005 L 766.6999999999999 1136.4000000000005 L 757.1999999999999 1145.9000000000005 L 761.9999999999999 1150.7000000000005 L 771.4999999999999 1141.2000000000005 z M 771.4999999999999 1100.6000000000006 L 766.6999999999999 1095.8000000000006 L 757.1999999999999 1105.3000000000006 L 761.9999999999999 1110.1000000000006 L 771.4999999999999 1100.6000000000006 z M 791.7999999999998 1202.1000000000006 L 786.9999999999999 1197.3000000000006 L 777.4999999999999 1206.8000000000006 L 782.2999999999998 1211.6000000000006 L 791.7999999999998 1202.1000000000006 z M 791.7999999999998 1161.5000000000007 L 786.9999999999999 1156.7000000000007 L 777.4999999999999 1166.2000000000007 L 782.2999999999998 1171.0000000000007 L 791.7999999999998 1161.5000000000007 z M 791.7999999999998 1120.9000000000008 L 786.9999999999999 1116.1000000000008 L 777.4999999999999 1125.6000000000008 L 782.2999999999998 1130.4000000000008 L 791.7999999999998 1120.9000000000008 z M 791.7999999999998 1081.6000000000008 L 786.9999999999999 1075.6000000000008 L 777.4999999999999 1085.1000000000008 L 782.2999999999998 1089.9000000000008 L 791.7999999999998 1081.6000000000008 z M 812.0999999999998 1181.8000000000009 L 807.2999999999998 1177.000000000001 L 797.7999999999998 1186.500000000001 L 802.5999999999998 1191.3000000000009 L 812.0999999999998 1181.8000000000009 z M 812.0999999999998 1141.200000000001 L 807.2999999999998 1136.400000000001 L 797.7999999999998 1145.900000000001 L 802.5999999999998 1150.700000000001 L 812.0999999999998 1141.200000000001 z M 812.0999999999998 1100.600000000001 L 807.2999999999998 1095.800000000001 L 797.7999999999998 1105.300000000001 L 802.5999999999998 1110.100000000001 L 812.0999999999998 1100.600000000001 z M 812.0999999999998 1061.300000000001 L 807.2999999999998 1055.300000000001 L 797.7999999999998 1064.800000000001 L 802.5999999999998 1070.800000000001 L 812.0999999999998 1061.300000000001 z M 832.3999999999997 1202.100000000001 L 826.3999999999997 1197.300000000001 L 817.9999999999998 1206.800000000001 L 822.7999999999997 1211.600000000001 L 832.3999999999997 1202.100000000001 z M 832.3999999999997 1161.5000000000011 L 826.3999999999997 1156.7000000000012 L 817.9999999999998 1166.2000000000012 L 822.7999999999997 1171.0000000000011 L 832.3999999999997 1161.5000000000011 z M 832.3999999999997 1120.9000000000012 L 826.3999999999997 1116.1000000000013 L 817.9999999999998 1125.6000000000013 L 822.7999999999997 1130.4000000000012 L 832.3999999999997 1120.9000000000012 z M 832.3999999999997 1081.6000000000013 L 826.3999999999997 1075.6000000000013 L 817.9999999999998 1085.1000000000013 L 822.7999999999997 1089.9000000000012 L 832.3999999999997 1081.6000000000013 z M 852.6999999999997 1181.8000000000013 L 846.6999999999997 1177.0000000000014 L 837.1999999999997 1186.5000000000014 L 843.1999999999997 1191.3000000000013 L 852.6999999999997 1181.8000000000013 z M 852.6999999999997 1141.2000000000014 L 846.6999999999997 1136.4000000000015 L 837.1999999999997 1145.9000000000015 L 843.1999999999997 1150.7000000000014 L 852.6999999999997 1141.2000000000014 z M 852.6999999999997 1100.6000000000015 L 846.6999999999997 1095.8000000000015 L 837.1999999999997 1105.3000000000015 L 843.1999999999997 1110.1000000000015 L 852.6999999999997 1100.6000000000015 z M 852.6999999999997 1061.3000000000015 L 846.6999999999997 1055.3000000000015 L 837.1999999999997 1064.8000000000015 L 843.1999999999997 1070.8000000000015 L 852.6999999999997 1061.3000000000015 z M 872.9999999999997 1202.1000000000015 L 866.9999999999997 1197.3000000000015 L 857.4999999999997 1206.8000000000015 L 863.4999999999997 1211.6000000000015 L 872.9999999999997 1202.1000000000015 z M 872.9999999999997 1161.5000000000016 L 866.9999999999997 1156.7000000000016 L 857.4999999999997 1166.2000000000016 L 863.4999999999997 1171.0000000000016 L 872.9999999999997 1161.5000000000016 z M 872.9999999999997 1120.9000000000017 L 866.9999999999997 1116.1000000000017 L 857.4999999999997 1125.6000000000017 L 863.4999999999997 1130.4000000000017 L 872.9999999999997 1120.9000000000017 z M 872.9999999999997 1081.6000000000017 L 866.9999999999997 1075.6000000000017 L 857.4999999999997 1085.1000000000017 L 863.4999999999997 1089.9000000000017 L 872.9999999999997 1081.6000000000017 z M 981.5999999999997 926.4000000000017 L 1117.6999999999996 1061.2000000000016 C 1116.0999999999997 1065.2000000000016 1113.6999999999996 1070.3000000000015 1110.4999999999995 1076.7000000000016 L 968.4999999999995 934.7000000000016 L 968.4999999999995 926.3000000000017 L 981.5999999999996 926.3000000000017 z M 958.8999999999996 1006.4000000000017 C 961.2999999999996 1000.8000000000017 963.2999999999996 995.7000000000016 964.8999999999996 990.9000000000017 L 1088.9999999999995 1113.8000000000018 C 1087.3999999999996 1116.2000000000019 1085.7999999999995 1118.4000000000017 1084.1999999999996 1120.4000000000017 C 1082.5999999999997 1122.4000000000017 1080.9999999999995 1124.2000000000016 1079.3999999999996 1125.8000000000018 L 958.8999999999996 1006.4000000000018 z" stroke-linecap="round" />
</g>
</svg>